<?xml version="1.0" encoding="utf-8"?>
<!-- Generator: Adobe Illustrator 16.2.1, SVG Export Plug-In . SVG Version: 6.00 Build 0)  -->
<!DOCTYPE svg PUBLIC "-//W3C//DTD SVG 1.1//EN" "http://www.w3.org/Graphics/SVG/1.1/DTD/svg11.dtd">
<svg version="1.1" id="Layer_1" xmlns="http://www.w3.org/2000/svg" xmlns:xlink="http://www.w3.org/1999/xlink" x="0px" y="0px"
	 width="20px" height="20px" viewBox="0 0 20 20" enable-background="new 0 0 20 20" xml:space="preserve">
<path d="M18.326,4.561c-0.362,0.107-0.746,0.182-1.15,0.224c0.788-0.512,1.353-1.216,1.693-2.111
	c-0.362,0.191-0.756,0.373-1.183,0.544c-0.426,0.171-0.853,0.288-1.279,0.352c-0.362-0.362-0.778-0.656-1.246-0.88
	c-0.469-0.224-0.991-0.336-1.566-0.336c-0.533,0-1.028,0.102-1.486,0.304c-0.458,0.203-0.862,0.48-1.214,0.832
	c-0.352,0.353-0.629,0.769-0.831,1.248C9.861,5.217,9.76,5.724,9.76,6.257c0,0.299,0.031,0.576,0.096,0.832
	C8.258,7.024,6.777,6.636,5.414,5.921C4.049,5.206,2.888,4.252,1.93,3.057c-0.341,0.619-0.512,1.27-0.512,1.952
	S1.567,6.31,1.866,6.864C2.164,7.42,2.589,7.867,3.144,8.209c-0.362,0-0.687-0.043-0.975-0.129C1.882,7.995,1.61,7.889,1.354,7.761
	v0.032c0,0.938,0.292,1.755,0.879,2.447c0.585,0.693,1.326,1.137,2.221,1.328c-0.171,0.043-0.336,0.075-0.495,0.097
	c-0.16,0.021-0.336,0.031-0.527,0.031c-0.214,0-0.448-0.031-0.703-0.096c0.233,0.768,0.676,1.403,1.326,1.904
	c0.649,0.501,1.4,0.763,2.253,0.783c-1.342,1.089-2.93,1.633-4.762,1.633c-0.171,0-0.331,0-0.479,0s-0.298-0.011-0.447-0.032
	c0.874,0.555,1.806,0.987,2.796,1.296c0.991,0.31,2.029,0.464,3.116,0.464c1.769,0,3.329-0.33,4.683-0.992
	c1.353-0.661,2.493-1.52,3.42-2.576c0.927-1.056,1.63-2.239,2.109-3.552c0.48-1.312,0.719-2.607,0.719-3.888V6.192
	c0.768-0.597,1.406-1.269,1.918-2.016C19.04,4.326,18.688,4.454,18.326,4.561z"/>
</svg>
