<?xml version="1.0" encoding="utf-8"?>
<!-- Generator: Adobe Illustrator 17.0.0, SVG Export Plug-In . SVG Version: 6.00 Build 0)  -->
<!DOCTYPE svg PUBLIC "-//W3C//DTD SVG 1.1//EN" "http://www.w3.org/Graphics/SVG/1.1/DTD/svg11.dtd">
<svg version="1.1" xmlns="http://www.w3.org/2000/svg" xmlns:xlink="http://www.w3.org/1999/xlink" x="0px" y="0px" width="20px"
	 height="20px" viewBox="0 0 20 20" enable-background="new 0 0 20 20" xml:space="preserve">
<g id="Layer_1" display="none">
	<path display="inline" d="M18.326,4.561c-0.362,0.107-0.746,0.182-1.15,0.224c0.788-0.512,1.353-1.216,1.693-2.111
		c-0.362,0.191-0.756,0.373-1.183,0.544c-0.426,0.171-0.853,0.288-1.279,0.352c-0.362-0.362-0.778-0.656-1.246-0.88
		c-0.469-0.224-0.991-0.336-1.567-0.336c-0.533,0-1.028,0.102-1.486,0.304c-0.458,0.203-0.862,0.48-1.214,0.832
		c-0.352,0.353-0.629,0.769-0.831,1.248C9.861,5.217,9.76,5.724,9.76,6.257c0,0.299,0.031,0.576,0.096,0.832
		C8.258,7.024,6.777,6.636,5.414,5.921C4.049,5.206,2.888,4.252,1.93,3.057C1.588,3.676,1.418,4.326,1.418,5.009
		c0,0.683,0.149,1.301,0.448,1.856C2.164,7.42,2.589,7.867,3.144,8.209c-0.362,0-0.687-0.043-0.975-0.129
		C1.882,7.995,1.61,7.889,1.355,7.761v0.032c0,0.938,0.292,1.755,0.879,2.447c0.585,0.693,1.326,1.137,2.221,1.328
		c-0.171,0.043-0.336,0.075-0.495,0.097c-0.16,0.021-0.336,0.031-0.527,0.031c-0.214,0-0.448-0.031-0.703-0.096
		c0.233,0.768,0.676,1.403,1.326,1.904c0.649,0.501,1.4,0.763,2.253,0.783c-1.342,1.089-2.93,1.633-4.762,1.633
		c-0.171,0-0.331,0-0.479,0c-0.149,0-0.298-0.011-0.447-0.032c0.874,0.555,1.806,0.987,2.796,1.296
		c0.991,0.31,2.029,0.464,3.116,0.464c1.768,0,3.329-0.33,4.683-0.992c1.352-0.661,2.493-1.52,3.42-2.576
		c0.927-1.056,1.63-2.239,2.109-3.552c0.48-1.312,0.719-2.608,0.719-3.888V6.192c0.768-0.597,1.406-1.268,1.918-2.016
		C19.04,4.326,18.688,4.454,18.326,4.561z"/>
</g>
<g id="Layer_2" display="none">
	<path display="inline" d="M5.414,7.34v3.276h2.629v7.952h3.272v-7.952h3.273V7.34h-3.273V5.66c0-0.28,0.07-0.518,0.21-0.714
		c0.14-0.196,0.284-0.294,0.434-0.294h2.629V1.432h-2.629c-0.541,0-1.049,0.112-1.524,0.336c-0.475,0.225-0.891,0.528-1.244,0.91
		C8.835,3.06,8.555,3.514,8.35,4.036c-0.205,0.522-0.308,1.083-0.308,1.68V7.34H5.414z"/>
</g>
<g id="Layer_3" display="none">
	<path display="inline" d="M11.813,14.125c0.039-0.04,0.074-0.065,0.104-0.075c0.03-0.01,0.065-0.035,0.105-0.075
		c0.061,0,0.105-0.01,0.135-0.03c0.03-0.02,0.075-0.03,0.136-0.03c0.159,0,0.27,0.051,0.329,0.15c0.06,0.08,0.09,0.23,0.09,0.45
		v2.911c0,0.219-0.01,0.35-0.03,0.389c-0.06,0.041-0.109,0.076-0.149,0.106c-0.04,0.029-0.101,0.045-0.18,0.045
		c-0.06,0-0.11-0.01-0.15-0.029c-0.04-0.019-0.08-0.031-0.119-0.031c-0.12-0.059-0.21-0.129-0.27-0.209V14.125z M15.948,14.005
		c0.06-0.02,0.14-0.03,0.239-0.03c0.08,0,0.15,0.01,0.21,0.03c0.06,0.02,0.109,0.04,0.149,0.06c0.08,0.16,0.12,0.341,0.12,0.54v0.54
		h-0.988v-0.54c0-0.1,0.004-0.199,0.015-0.3c0.01-0.1,0.045-0.18,0.105-0.24C15.837,14.045,15.887,14.025,15.948,14.005z
		 M9.715,8.455c-0.08-0.119-0.12-0.239-0.12-0.359v-3.42c0-0.16,0.05-0.271,0.15-0.33c0.06-0.1,0.189-0.15,0.389-0.15
		c0.12,0,0.25,0.051,0.39,0.15c0.1,0.059,0.15,0.17,0.15,0.33v3.42c0,0.14-0.051,0.26-0.15,0.359c-0.119,0.12-0.25,0.181-0.39,0.181
		C9.935,8.635,9.795,8.575,9.715,8.455L9.715,8.455z M2.165,11.095v1.08h1.349v6.6h1.228v-6.6h1.348v-1.08H2.165z M4.801,1.075
		H3.393l1.678,5.13v3.33h1.439v-3.51l1.678-4.95H6.749L5.82,4.465H5.76L4.801,1.075z M8.307,7.975c0,0.521,0.159,0.93,0.479,1.23
		c0.339,0.341,0.788,0.511,1.348,0.511s1.009-0.17,1.349-0.511c0.319-0.259,0.48-0.669,0.48-1.23v-3.24c0-0.22-0.04-0.43-0.12-0.63
		c-0.08-0.199-0.199-0.37-0.359-0.51c-0.319-0.32-0.749-0.48-1.288-0.48c-0.3,0-0.56,0.035-0.779,0.105
		c-0.22,0.07-0.43,0.175-0.629,0.314c-0.32,0.32-0.479,0.721-0.479,1.2V7.975z M12.546,13.06c-0.09,0.011-0.175,0.045-0.254,0.104
		c-0.08,0.041-0.16,0.091-0.24,0.15c-0.08,0.06-0.16,0.131-0.239,0.21v-2.43h-1.139v7.68h1.139v-0.42
		c0.079,0.08,0.159,0.15,0.239,0.209c0.08,0.061,0.16,0.111,0.24,0.15c0.199,0.08,0.398,0.121,0.599,0.121
		c0.34,0,0.589-0.111,0.749-0.33c0.08-0.102,0.145-0.227,0.195-0.375c0.05-0.15,0.074-0.336,0.074-0.557v-3.12
		c0-0.239-0.024-0.444-0.074-0.614c-0.051-0.17-0.115-0.325-0.195-0.465c-0.22-0.221-0.489-0.33-0.809-0.33
		C12.731,13.045,12.636,13.05,12.546,13.06z M12.981,3.265v5.25c0,0.2,0.025,0.365,0.075,0.495s0.104,0.235,0.165,0.315
		c0.159,0.221,0.39,0.33,0.689,0.33c0.101,0,0.215-0.024,0.345-0.075c0.13-0.049,0.244-0.095,0.345-0.135
		c0.14-0.1,0.274-0.19,0.404-0.27c0.13-0.08,0.255-0.19,0.375-0.33v0.689h1.288v-6.27h-1.288v4.77c-0.12,0.161-0.25,0.271-0.39,0.33
		c-0.16,0.101-0.29,0.15-0.39,0.15c-0.101,0-0.191-0.04-0.27-0.12c-0.021-0.02-0.03-0.12-0.03-0.3v-4.83H12.981z M17.836,14.605
		c0-0.28-0.035-0.515-0.106-0.705c-0.07-0.19-0.176-0.364-0.314-0.525c-0.279-0.28-0.679-0.421-1.199-0.421
		c-0.5,0-0.909,0.161-1.229,0.481c-0.319,0.32-0.479,0.71-0.479,1.17v2.549c0,0.521,0.14,0.951,0.42,1.291
		c0.319,0.32,0.719,0.48,1.198,0.48c0.579,0,1.009-0.141,1.288-0.42c0.279-0.34,0.42-0.791,0.42-1.352v-0.269h-1.17v0.269
		c0,0.16-0.005,0.297-0.015,0.406c-0.011,0.109-0.045,0.195-0.105,0.254c-0.04,0.021-0.09,0.041-0.149,0.061
		c-0.06,0.02-0.13,0.029-0.21,0.029c-0.199,0-0.329-0.049-0.39-0.148c-0.08-0.08-0.119-0.281-0.119-0.602v-1.08h2.158V14.605z
		 M9.805,18.775v-5.67H8.667v4.321c-0.08,0.1-0.18,0.19-0.3,0.27c-0.1,0.061-0.17,0.096-0.21,0.105
		c-0.04,0.01-0.08,0.014-0.119,0.014c-0.141,0-0.23-0.019-0.27-0.059c0-0.041-0.01-0.086-0.029-0.137
		c-0.021-0.049-0.03-0.113-0.03-0.193v-4.321H6.569v4.741c0,0.299,0.07,0.559,0.21,0.779c0.12,0.141,0.319,0.211,0.6,0.211
		c0.219,0,0.438-0.061,0.659-0.182c0.199-0.078,0.409-0.26,0.629-0.539v0.66H9.805z"/>
</g>
<g id="Layer_4" display="none">
	<path display="inline" d="M15.593,11.905c0.296-0.504,0.535-1.044,0.719-1.62c0.184-0.576,0.304-1.168,0.359-1.776
		c0.057-0.607,0.061-1.191,0.013-1.752c-0.08-0.624-0.272-1.22-0.575-1.788c-0.304-0.567-0.695-1.075-1.175-1.523
		c-0.48-0.448-1.023-0.82-1.63-1.116c-0.607-0.296-1.255-0.483-1.941-0.564c-1.056-0.127-2.066-0.067-3.033,0.181
		c-0.967,0.248-1.821,0.647-2.564,1.2c-0.743,0.552-1.339,1.24-1.786,2.063C3.531,6.033,3.3,6.957,3.283,7.981
		c0,0.992,0.176,1.8,0.528,2.424c0.351,0.624,0.95,1.104,1.797,1.439c0.288-0.287,0.44-0.556,0.456-0.804
		c0.016-0.248-0.032-0.496-0.144-0.744c-0.112-0.248-0.248-0.504-0.408-0.767c-0.159-0.265-0.256-0.564-0.287-0.9
		c-0.064-0.576-0.009-1.14,0.168-1.691c0.175-0.553,0.435-1.061,0.778-1.524c0.344-0.464,0.759-0.868,1.247-1.212
		c0.487-0.344,1.01-0.592,1.569-0.744c0.56-0.151,1.146-0.192,1.763-0.12c0.614,0.072,1.226,0.292,1.833,0.66
		c0.416,0.24,0.756,0.608,1.02,1.104c0.264,0.496,0.443,1.044,0.539,1.644s0.115,1.221,0.06,1.86
		c-0.056,0.64-0.191,1.235-0.407,1.788c-0.216,0.552-0.504,1.027-0.863,1.428c-0.359,0.4-0.795,0.647-1.306,0.744
		c-0.32,0.048-0.644,0.036-0.972-0.036c-0.327-0.072-0.562-0.18-0.707-0.324c-0.256-0.224-0.399-0.479-0.432-0.767
		c-0.032-0.288-0.012-0.592,0.06-0.912c0.071-0.32,0.176-0.652,0.312-0.996c0.136-0.344,0.256-0.692,0.359-1.044
		c0.104-0.352,0.172-0.704,0.204-1.057c0.031-0.352-0.024-0.695-0.168-1.031c-0.191-0.433-0.447-0.685-0.767-0.756
		C9.196,5.569,8.873,5.609,8.545,5.76C8.218,5.912,7.922,6.157,7.658,6.493c-0.264,0.336-0.419,0.696-0.467,1.08
		C7.159,7.781,7.155,7.985,7.179,8.185c0.024,0.2,0.056,0.395,0.096,0.588c0.04,0.191,0.08,0.38,0.12,0.564
		c0.04,0.184,0.061,0.372,0.061,0.564c0,0.416-0.057,0.868-0.168,1.356c-0.112,0.488-0.24,0.981-0.384,1.477
		c-0.144,0.496-0.292,0.988-0.443,1.476c-0.152,0.488-0.26,0.941-0.324,1.357c-0.032,0.176-0.06,0.384-0.083,0.624
		c-0.024,0.239-0.04,0.488-0.049,0.744c-0.008,0.256-0.008,0.508,0,0.756c0.009,0.248,0.036,0.452,0.084,0.611H6.04h1.151
		c0.191-0.336,0.367-0.703,0.527-1.103c0.159-0.399,0.307-0.82,0.443-1.26c0.135-0.441,0.264-0.889,0.383-1.345
		c0.12-0.456,0.229-0.899,0.324-1.332c0.063-0.048,0.119-0.056,0.168-0.023c0.048,0.032,0.092,0.076,0.132,0.132
		c0.039,0.057,0.079,0.12,0.119,0.192c0.04,0.071,0.084,0.124,0.132,0.155c0.351,0.272,0.764,0.444,1.234,0.517
		c0.472,0.071,0.947,0.071,1.427,0c0.479-0.072,0.938-0.204,1.378-0.396c0.44-0.191,0.804-0.416,1.091-0.672
		C14.949,12.829,15.297,12.409,15.593,11.905z"/>
</g>
<g id="Layer_5">
	<g id="O">
		<g>
			<path fill-rule="evenodd" clip-rule="evenodd" fill="#231F20" d="M13.84,15.216c-0.395,0.117-0.805,0.176-1.232,0.176
				c-0.235,0-0.448-0.021-0.64-0.064c-0.192-0.043-0.373-0.117-0.544-0.224c-0.32-0.213-0.534-0.448-0.64-0.704
				c-0.064-0.149-0.101-0.357-0.112-0.624c-0.011-0.267-0.016-0.635-0.016-1.104V8.544H14.4v-2.88h-3.744V1.952h-2.24
				C8.352,2.379,8.277,2.757,8.192,3.088C8.106,3.419,7.989,3.712,7.84,3.968C7.541,4.566,7.178,5.035,6.752,5.376
				C6.517,5.568,6.24,5.739,5.92,5.888C5.6,6.037,5.28,6.165,4.96,6.272v2.272h2.176v5.632c0,0.789,0.085,1.344,0.256,1.664
				c0.085,0.384,0.352,0.747,0.8,1.088c0.405,0.363,0.885,0.64,1.44,0.832c0.299,0.086,0.565,0.155,0.8,0.208
				c0.234,0.054,0.544,0.08,0.928,0.08c0.64,0,1.248-0.064,1.824-0.192c0.512-0.149,1.13-0.373,1.856-0.672v-2.56
				C14.634,14.902,14.234,15.099,13.84,15.216z"/>
		</g>
	</g>
</g>
<g id="Layer_6" display="none">
	<g id="ë" display="inline">
		<g>
			<path fill-rule="evenodd" clip-rule="evenodd" fill="#231F20" d="M17.003,1.501H2.997c-0.816,0-1.496,0.68-1.496,1.496v4.165
				h5.66C8.011,6.549,8.912,6.022,10,6.022c1.054,0,2.006,0.527,2.839,1.139h5.66V2.997C18.499,2.181,17.819,1.501,17.003,1.501z
				 M17.36,5.444c0,0.323-0.255,0.595-0.578,0.595h-2.227c-0.323,0-0.595-0.272-0.595-0.595V3.218c0-0.323,0.272-0.578,0.595-0.578
				h2.227c0.323,0,0.578,0.255,0.578,0.578V5.444z M14.471,10.493c0,2.482-2.006,4.488-4.471,4.488
				c-2.465,0-4.471-2.006-4.471-4.488c0-0.357,0.034-0.714,0.136-1.054H1.501v7.564c0,0.816,0.68,1.496,1.496,1.496h14.007
				c0.816,0,1.496-0.68,1.496-1.496V9.439h-4.165C14.437,9.779,14.471,10.136,14.471,10.493z M12.839,10.561
				c0-1.564-1.275-2.822-2.839-2.822c-1.564,0-2.839,1.258-2.839,2.822S8.436,13.4,10,13.4C11.564,13.4,12.839,12.125,12.839,10.561
				z"/>
		</g>
	</g>
</g>
</svg>
