<?xml version="1.0" encoding="utf-8"?>
<!-- Generator: Adobe Illustrator 16.2.1, SVG Export Plug-In . SVG Version: 6.00 Build 0)  -->
<!DOCTYPE svg PUBLIC "-//W3C//DTD SVG 1.1//EN" "http://www.w3.org/Graphics/SVG/1.1/DTD/svg11.dtd">
<svg version="1.1" xmlns="http://www.w3.org/2000/svg" xmlns:xlink="http://www.w3.org/1999/xlink" x="0px" y="0px" width="20px"
	 height="20px" viewBox="0 0 20 20" enable-background="new 0 0 20 20" xml:space="preserve">
<g id="Layer_1" display="none">
	<path display="inline" d="M18.326,4.561c-0.362,0.107-0.746,0.182-1.15,0.224c0.788-0.512,1.353-1.216,1.693-2.111
		c-0.362,0.191-0.756,0.373-1.183,0.544c-0.426,0.171-0.853,0.288-1.279,0.352c-0.362-0.362-0.778-0.656-1.246-0.88
		c-0.469-0.224-0.991-0.336-1.566-0.336c-0.533,0-1.028,0.102-1.486,0.304c-0.458,0.203-0.862,0.48-1.214,0.832
		c-0.352,0.353-0.629,0.769-0.831,1.248C9.861,5.217,9.76,5.724,9.76,6.257c0,0.299,0.031,0.576,0.096,0.832
		C8.258,7.024,6.777,6.636,5.414,5.921C4.049,5.206,2.888,4.252,1.93,3.057c-0.341,0.619-0.512,1.27-0.512,1.952
		S1.567,6.31,1.866,6.864C2.164,7.42,2.589,7.867,3.144,8.209c-0.362,0-0.687-0.043-0.975-0.129C1.882,7.995,1.61,7.889,1.354,7.761
		v0.032c0,0.938,0.292,1.755,0.879,2.447c0.585,0.693,1.326,1.137,2.221,1.328c-0.171,0.043-0.336,0.075-0.495,0.097
		c-0.16,0.021-0.336,0.031-0.527,0.031c-0.214,0-0.448-0.031-0.703-0.096c0.233,0.768,0.676,1.403,1.326,1.904
		c0.649,0.501,1.4,0.763,2.253,0.783c-1.342,1.089-2.93,1.633-4.762,1.633c-0.171,0-0.331,0-0.479,0s-0.298-0.011-0.447-0.032
		c0.874,0.555,1.806,0.987,2.796,1.296c0.991,0.31,2.029,0.464,3.116,0.464c1.769,0,3.329-0.33,4.683-0.992
		c1.353-0.661,2.493-1.52,3.42-2.576c0.927-1.056,1.63-2.239,2.109-3.552c0.48-1.312,0.719-2.607,0.719-3.888V6.192
		c0.768-0.597,1.406-1.269,1.918-2.016C19.04,4.326,18.688,4.454,18.326,4.561z"/>
</g>
<g id="Layer_2" display="none">
	<path display="inline" d="M5.414,7.34v3.276h2.629v7.952h3.271v-7.952h3.272V7.34h-3.272V5.66c0-0.28,0.07-0.519,0.21-0.714
		c0.14-0.196,0.284-0.294,0.434-0.294h2.629V1.432h-2.629c-0.541,0-1.049,0.112-1.524,0.336c-0.475,0.225-0.891,0.528-1.244,0.91
		C8.834,3.061,8.555,3.514,8.35,4.036s-0.308,1.083-0.308,1.68V7.34H5.414z"/>
</g>
<g id="Layer_3">
	<path d="M11.813,14.125c0.039-0.04,0.074-0.065,0.104-0.075s0.064-0.035,0.104-0.075c0.061,0,0.105-0.01,0.135-0.03
		c0.03-0.02,0.075-0.03,0.136-0.03c0.159,0,0.27,0.051,0.329,0.15c0.06,0.08,0.09,0.23,0.09,0.45v2.911
		c0,0.219-0.01,0.35-0.03,0.389c-0.06,0.041-0.109,0.076-0.149,0.105s-0.101,0.045-0.18,0.045c-0.06,0-0.11-0.01-0.15-0.029
		s-0.08-0.031-0.119-0.031c-0.12-0.059-0.21-0.129-0.27-0.209V14.125z M15.948,14.005c0.06-0.021,0.14-0.03,0.239-0.03
		c0.08,0,0.15,0.01,0.21,0.03c0.06,0.02,0.109,0.04,0.149,0.06c0.08,0.16,0.12,0.341,0.12,0.54v0.54h-0.988v-0.54
		c0-0.1,0.004-0.199,0.015-0.3c0.01-0.1,0.045-0.18,0.104-0.24C15.837,14.045,15.887,14.025,15.948,14.005z M9.715,8.455
		c-0.08-0.119-0.12-0.239-0.12-0.359v-3.42c0-0.16,0.05-0.271,0.15-0.33c0.06-0.1,0.189-0.15,0.389-0.15
		c0.12,0,0.25,0.051,0.39,0.15c0.1,0.06,0.15,0.17,0.15,0.33v3.42c0,0.14-0.051,0.26-0.15,0.359c-0.119,0.12-0.25,0.181-0.39,0.181
		C9.935,8.635,9.794,8.575,9.715,8.455L9.715,8.455z M2.165,11.095v1.08h1.349v6.6h1.229v-6.6h1.348v-1.08H2.165z M4.801,1.075
		H3.393l1.678,5.13v3.33h1.438v-3.51l1.678-4.95H6.749L5.82,4.465H5.76L4.801,1.075z M8.307,7.975c0,0.521,0.159,0.93,0.479,1.229
		c0.339,0.341,0.788,0.511,1.348,0.511s1.009-0.17,1.349-0.511c0.319-0.259,0.479-0.669,0.479-1.229v-3.24
		c0-0.22-0.04-0.43-0.12-0.63c-0.08-0.199-0.199-0.37-0.359-0.51c-0.319-0.32-0.749-0.48-1.288-0.48c-0.3,0-0.56,0.035-0.779,0.105
		s-0.43,0.175-0.629,0.314c-0.32,0.32-0.479,0.721-0.479,1.2V7.975z M12.546,13.06c-0.09,0.011-0.175,0.045-0.254,0.104
		c-0.08,0.041-0.16,0.091-0.24,0.15c-0.08,0.061-0.16,0.131-0.239,0.21v-2.43h-1.139v7.68h1.139v-0.42
		c0.079,0.08,0.159,0.15,0.239,0.209c0.08,0.061,0.16,0.111,0.24,0.15c0.199,0.08,0.398,0.121,0.599,0.121
		c0.34,0,0.589-0.111,0.749-0.33c0.08-0.102,0.145-0.227,0.195-0.375c0.05-0.15,0.074-0.336,0.074-0.557v-3.12
		c0-0.239-0.024-0.444-0.074-0.614c-0.051-0.17-0.115-0.325-0.195-0.465c-0.22-0.221-0.489-0.33-0.809-0.33
		C12.731,13.045,12.636,13.05,12.546,13.06z M12.981,3.265v5.25c0,0.2,0.025,0.365,0.075,0.495s0.104,0.235,0.165,0.314
		c0.159,0.221,0.39,0.33,0.688,0.33c0.101,0,0.215-0.024,0.345-0.075c0.13-0.049,0.244-0.095,0.345-0.135
		c0.14-0.1,0.274-0.189,0.404-0.27s0.255-0.19,0.375-0.33v0.689h1.288v-6.27h-1.288v4.77c-0.12,0.161-0.25,0.271-0.39,0.33
		c-0.16,0.101-0.29,0.15-0.39,0.15c-0.101,0-0.19-0.04-0.27-0.12c-0.021-0.02-0.03-0.12-0.03-0.3v-4.83H12.981z M17.836,14.605
		c0-0.28-0.035-0.515-0.105-0.705c-0.07-0.189-0.176-0.364-0.314-0.524c-0.279-0.28-0.679-0.421-1.199-0.421
		c-0.5,0-0.909,0.161-1.229,0.48c-0.319,0.32-0.479,0.71-0.479,1.17v2.549c0,0.521,0.14,0.951,0.42,1.291
		c0.319,0.32,0.719,0.48,1.198,0.48c0.579,0,1.009-0.141,1.289-0.42c0.279-0.34,0.42-0.791,0.42-1.352v-0.27h-1.169v0.27
		c0,0.16-0.005,0.297-0.015,0.406c-0.011,0.109-0.045,0.195-0.105,0.254c-0.04,0.021-0.09,0.041-0.149,0.061s-0.13,0.029-0.21,0.029
		c-0.199,0-0.329-0.049-0.39-0.148c-0.08-0.08-0.119-0.281-0.119-0.602v-1.08h2.158V14.605z M9.805,18.775v-5.67H8.667v4.321
		c-0.08,0.1-0.18,0.189-0.3,0.27c-0.1,0.061-0.17,0.096-0.21,0.105s-0.08,0.014-0.119,0.014c-0.141,0-0.23-0.02-0.271-0.059
		c0-0.041-0.01-0.086-0.029-0.137c-0.021-0.049-0.03-0.113-0.03-0.193v-4.321H6.569v4.741c0,0.299,0.07,0.559,0.21,0.779
		c0.12,0.141,0.319,0.211,0.6,0.211c0.219,0,0.438-0.061,0.659-0.182c0.199-0.078,0.409-0.26,0.629-0.539v0.66H9.805z"/>
</g>
</svg>
